<?xml version="1.0" encoding="utf-8" ?><svg xmlns="http://www.w3.org/2000/svg" xmlns:xlink="http://www.w3.org/1999/xlink" width="250" height="100" viewBox="250 100 1820 1024"><path fill="#FEFEFE" transform="matrix(1.25769 0 0 1.25781 -0.000244141 0)" d="M449.794 323.515C470.756 316.439 489.094 313.909 510.481 321.325C524.394 326.149 563.189 348.23 569.013 360.919C570.395 363.931 570.958 368.718 569.794 371.817C562.465 368.796 555.944 362.587 549.924 357.541C553.085 364.052 559.966 371.15 565.656 375.565C569.655 378.504 573.567 381.231 578.07 383.373C588.661 388.41 627.164 400.567 629.46 411.974C629.801 413.669 629.571 415.039 628.408 416.396C625.871 419.357 620.979 420.048 617.307 419.962C608.956 419.767 584.673 411.335 578.743 416.153C578.889 418.625 580.111 419.918 581.921 421.538C588.878 427.764 597.789 431.27 605.321 436.654C609.938 445.661 609.234 452.179 607.82 461.869C597.558 472.611 577.322 480.517 562.798 480.926C552.707 481.21 542.057 478.824 534.627 471.58C527.088 464.228 526.08 456.217 525.75 446.281C522.832 454.924 521.001 462.546 525.216 471.264C528.859 478.8 536.265 483.625 544.008 486.18C566.306 493.539 585.402 484.391 605.08 474.96C606.783 477.759 608.698 480.558 610.214 483.456C614.101 493.543 613.162 502.141 608.828 512.018C603.881 523.296 595.875 533.375 587.632 542.411C584.899 534.481 581.372 528.129 576.178 521.548C575.15 528.726 574.243 535.944 573.069 543.097L566.536 532.399C561.907 527.042 557.01 521.079 550.751 517.612C543.19 513.424 533.222 512.263 524.763 511.069C499.543 507.51 469.731 504.661 452.45 483.264C450.489 480.837 448.754 477.958 449.27 474.699C450.016 469.981 456.156 466.317 459.753 463.692C465.382 459.624 471.796 456.268 477.777 452.718C485.523 448.809 493.078 443.876 500.233 438.964C491.559 441.802 483.106 445.609 474.657 449.062C457.166 456.27 441.008 462.548 428.258 477.172C425.822 470.774 423.82 464.527 423.197 457.665C421.39 437.744 429.849 420.38 442.159 405.446C445.219 401.216 448.865 397.721 452.594 394.101C432.17 403.679 417.296 421.445 408.733 441.955C406.946 423.648 409.24 406.122 417.429 389.489C428.851 365.73 449.308 347.534 474.234 338.964C462.766 336.281 457.786 331.83 449.794 323.515ZM524.768 378.284C510.613 368.468 489.541 364.838 472.597 363.964C480.961 373.633 489.86 382.391 500.057 390.133C503.024 392.059 505.979 394.127 509.119 395.752C526.581 393.905 542.214 393.362 559.526 397.245C551.86 393.171 543.279 389.243 536.831 383.37C529.274 376.487 525.585 362.186 515.283 359.032C520.827 365.176 522.899 370.327 524.768 378.284Z"/><path fill="#D0CFCF" transform="matrix(1.25769 0 0 1.25781 -0.000244141 0)" d="M459.753 463.692C459.534 467.907 459.283 472.103 462.153 475.597C463.869 477.687 466.366 478.734 469.026 478.908C486.548 480.055 517.842 451.004 530.852 439.205C532.289 447.442 534.461 453.085 541.377 458.25C560.901 472.83 586.362 464.746 607.82 461.869C597.558 472.611 577.322 480.517 562.798 480.926C552.707 481.21 542.057 478.824 534.627 471.58C527.088 464.228 526.08 456.217 525.75 446.281C522.832 454.924 521.001 462.546 525.216 471.264C528.859 478.8 536.265 483.625 544.008 486.18C566.306 493.539 585.402 484.391 605.08 474.96C606.783 477.759 608.698 480.558 610.214 483.456C614.101 493.543 613.162 502.141 608.828 512.018C603.881 523.296 595.875 533.375 587.632 542.411C584.899 534.481 581.372 528.129 576.178 521.548C575.15 528.726 574.243 535.944 573.069 543.097L566.536 532.399C561.907 527.042 557.01 521.079 550.751 517.612C543.19 513.424 533.222 512.263 524.763 511.069C499.543 507.51 469.731 504.661 452.45 483.264C450.489 480.837 448.754 477.958 449.27 474.699C450.016 469.981 456.156 466.317 459.753 463.692Z"/><path fill="#FEFEFE" transform="matrix(1.25769 0 0 1.25781 -0.000244141 0)" d="M538.268 503.444C562.052 501.58 590.489 497.944 610.214 483.456C614.101 493.543 613.162 502.141 608.828 512.018C603.881 523.296 595.875 533.375 587.632 542.411C584.899 534.481 581.372 528.129 576.178 521.548C575.15 528.726 574.243 535.944 573.069 543.097L566.536 532.399C566.32 530.576 566.078 528.719 565.496 526.972C561.213 514.099 549.545 508.97 538.268 503.444Z"/><path fill="#D0CFCF" transform="matrix(1.25769 0 0 1.25781 -0.000244141 0)" d="M442.159 405.446C442.173 405.67 442.194 405.894 442.2 406.119C442.408 414.254 431.217 431.891 437.867 438.612C441.289 442.07 447.98 441.693 452.498 441.568C474.049 440.972 493.96 435.681 513.634 427.074C510.591 430.056 504.237 437.993 500.233 438.964C491.559 441.802 483.106 445.609 474.657 449.062C457.166 456.27 441.008 462.548 428.258 477.172C425.822 470.774 423.82 464.527 423.197 457.665C421.39 437.744 429.849 420.38 442.159 405.446Z"/><path fill="#FEFEFE" transform="matrix(1.25769 0 0 1.25781 -0.000244141 0)" d="M496.191 374.975C500.554 375.67 505.299 376.169 509.312 378.094L509.87 378.366C515.19 380.92 519.307 385.279 523.546 389.295C521.527 389.407 519.492 389.518 517.469 389.474C508.428 389.277 501.92 380.936 496.191 374.975Z"/><path fill="#FEFEFE" transform="matrix(1.25769 0 0 1.25781 -0.000244141 0)" d="M1024.56 411.926C1050.36 408.621 1081.52 417.771 1102 433.617C1117.92 445.94 1129.54 464.014 1131.94 484.225C1134.28 503.973 1128.66 523.087 1116.41 538.676C1098.63 561.294 1073.09 571.621 1045.3 575.031C1016.07 576.647 987.11 571.288 963.861 552.372C948.027 539.487 937.277 521.988 935.301 501.418C933.316 480.772 940.39 461.056 953.551 445.226C971.244 423.945 997.67 414.362 1024.56 411.926ZM1045.28 544.695C1061.74 541.907 1076.79 534.756 1086.67 520.738C1093.82 510.588 1096.55 498.47 1094.22 486.253C1091.53 472.188 1082.8 459.787 1070.94 451.907C1058.78 443.833 1039.96 439.391 1025.3 442.08C1008.5 444.53 993.104 450.889 982.555 464.884C974.732 475.261 971.825 488.184 973.683 500.986C975.625 514.37 983.142 525.36 993.984 533.238C1009.28 544.352 1026.9 547.157 1045.28 544.695Z"/><path fill="#FEFEFE" transform="matrix(1.25769 0 0 1.25781 -0.000244141 0)" d="M1139.23 395.013C1151.01 401.365 1165.87 417.361 1176.68 426.623C1208.73 453.649 1240.5 481.01 1271.98 508.701C1271.19 476.412 1271.44 444.183 1271.63 411.889L1309.2 411.763L1309.58 536.663L1309.8 569.206C1309.91 575.894 1310.59 583.038 1309.73 589.662L1308.51 590.07C1264.92 551.823 1220.59 514.325 1177.42 475.618C1178.36 508.095 1177.98 540.695 1178.13 573.186L1140.6 573.231C1140.93 513.769 1140.11 454.465 1139.23 395.013Z"/><path fill="#FEFEFE" transform="matrix(1.25769 0 0 1.25781 -0.000244141 0)" d="M376.835 417.33C381.766 404.38 388.512 394.313 398.481 384.712C390.022 408.914 383.572 433.168 395.275 457.652C402.302 472.354 413.588 484.039 426.312 493.971C481.407 536.974 549.143 541.323 558.474 623.801C535.126 591.967 506.97 569.418 473.214 549.329C499.583 573.647 532.561 598.007 534.115 637.121C534.666 650.989 531.5 666.821 524.689 678.989C521.301 686.855 514.807 693.391 508.854 699.375C523.578 636.549 467.071 603.21 427.66 566.001C408.768 548.164 392.092 528.797 381.306 504.922C368.774 477.182 365.939 446.18 376.835 417.33Z"/><path fill="#D0CFCF" transform="matrix(1.25769 0 0 1.25781 -0.000244141 0)" d="M508.854 699.375C523.578 636.549 467.071 603.21 427.66 566.001C408.768 548.164 392.092 528.797 381.306 504.922C368.774 477.182 365.939 446.18 376.835 417.33C376.779 424.301 376.594 431.333 377.621 438.247C383.335 476.737 407.752 514.451 434.559 541.728C469.143 576.917 524.167 610.805 523.754 665.691C523.725 669.476 522.714 675.706 524.689 678.989C521.301 686.855 514.807 693.391 508.854 699.375Z"/><path fill="#FEFEFE" transform="matrix(1.25769 0 0 1.25781 -0.000244141 0)" d="M307.338 481.921C287.648 525.39 279.752 566.458 296.948 612.404C323.807 684.168 389.712 731.09 417.167 801.948C413.244 798.858 408.943 795.86 405.281 792.484C362.871 761.946 311.667 739.464 275.876 700.803C252.162 675.189 240.998 644.67 242.485 609.787C244.286 567.539 263.355 522.9 294.701 494.094C298.883 490.011 303.013 485.853 307.338 481.921Z"/><path fill="#D0CFCF" transform="matrix(1.25769 0 0 1.25781 -0.000244141 0)" d="M405.281 792.484C362.871 761.946 311.667 739.464 275.876 700.803C252.162 675.189 240.998 644.67 242.485 609.787C244.286 567.539 263.355 522.9 294.701 494.094C294.662 494.313 294.63 494.534 294.584 494.752C292.658 503.933 281.238 519.048 276.868 528.946C255.858 576.532 259.743 629.128 287.306 673.2C298.124 690.497 311.754 706.329 326.202 720.695C340.973 735.382 357.17 749.19 373.27 762.401C381.145 768.863 389.843 774.741 397.164 781.815C400.322 784.866 404.069 788.122 405.281 792.484Z"/><path fill="#FEFEFE" transform="matrix(1.25769 0 0 1.25781 -0.000244141 0)" d="M805.032 412.207C848.787 412.409 892.543 412.371 936.298 412.092C931.221 423.548 923.536 434.183 917.728 445.363C892.58 445.402 867.432 445.168 842.289 444.66L842.418 477.166C867.769 477.272 893.256 477.658 918.59 476.771C917.725 487.609 918.128 498.602 918.287 509.464L845.794 509.49C844.713 509.488 844.164 509.717 843.168 510.093C840.754 518.924 842.447 531.943 842.525 541.335L926.659 541.342L943.482 574.979C897.226 574.283 850.963 574.184 804.704 574.682C805.716 520.57 804.982 466.334 805.032 412.207Z"/><defs><linearGradient id="gradient_0" gradientUnits="userSpaceOnUse" x1="326.14825" y1="555.27368" x2="205.51039" y2="478.4964"><stop offset="0" stop-color="#B3B2B2"/><stop offset="1" stop-color="white"/></linearGradient></defs><path fill="url(#gradient_0)" transform="matrix(1.25769 0 0 1.25781 -0.000244141 0)" d="M356.149 382.071L356.868 382.82C359.44 409.259 293.755 463.687 275.398 481.84C266.203 490.97 257.651 500.724 249.802 511.034C236.925 527.999 227.769 547.491 222.933 568.235C211.528 617.297 221.715 653.085 247.478 694.673C237.063 688.1 228.089 680 219.199 671.528C217.203 669.672 215.242 667.779 213.318 665.849C188.079 640.4 169.705 605.276 169.88 568.789C170.251 491.713 231.745 452.373 292.753 420.981C314.452 409.816 338.662 399.456 356.149 382.071Z"/><defs><linearGradient id="gradient_1" gradientUnits="userSpaceOnUse" x1="373.44336" y1="607.48431" x2="450.74918" y2="547.51343"><stop offset="0" stop-color="#C9C8C8"/><stop offset="1" stop-color="white"/></linearGradient></defs><path fill="url(#gradient_1)" transform="matrix(1.25769 0 0 1.25781 -0.000244141 0)" d="M357.61 422.942C358.605 426.839 353.836 440.257 353.264 445.308C351.63 459.745 353.27 474.23 357.319 488.137C372.942 541.792 410.033 573.043 450.152 608.407C463.61 620.27 477.276 632.088 486.433 647.758C498.903 669.099 500.367 691.689 494.211 715.277C491.344 706.887 487.937 699.454 483.19 691.954C466.129 667.7 438.726 650.363 415.018 633.164C396.338 619.614 377.622 605.831 360.802 589.983C337.968 568.471 316.988 538.499 316.128 506.011C315.236 472.305 335.501 446.294 357.61 422.942Z"/><path fill="#FEFEFE" transform="matrix(1.25769 0 0 1.25781 -0.000244141 0)" d="M303.794 538.374L304.339 536.163C308.18 537.98 314.419 555.338 317.114 560.014C322.272 568.958 328.175 577.45 334.761 585.4C349.594 603.175 367.878 617.659 386.27 631.545C411.65 650.706 438.586 666.434 449.876 697.872C460.505 727.469 459.163 762.002 445.658 790.474C442.355 797.439 438.247 804.671 432.959 810.309L432.246 811.081C430.25 809.559 429.438 796.21 428.615 792.847C426.405 783.809 422.442 774.8 418.353 766.481C397.987 725.038 367.259 691.011 341.611 653.041C320.213 621.363 296.064 578.392 303.794 538.374Z"/><path fill="#D0CFCF" transform="matrix(1.25769 0 0 1.25781 -0.000244141 0)" d="M432.959 810.309L432.246 811.081C430.25 809.559 429.438 796.21 428.615 792.847C426.405 783.809 422.442 774.8 418.353 766.481C397.987 725.038 367.259 691.011 341.611 653.041C320.213 621.363 296.064 578.392 303.794 538.374C304.617 551.166 309.336 561.969 314.934 573.331C334.223 612.477 363.895 643.413 390.523 677.455C401.229 691.143 412.017 705.285 420.005 720.776C428.643 737.527 434.537 756.907 434.855 775.855C434.943 781.111 432.227 808.457 432.959 810.309Z"/><path fill="#FEFEFE" transform="matrix(1.25769 0 0 1.25781 -0.000244141 0)" d="M1389.51 411.958C1407.14 412.62 1424.93 412.144 1442.57 412.131L1534.98 412.254C1524.08 423.3 1513.64 434.86 1503.06 446.214L1425.52 446.247C1425.65 456.253 1425.95 466.291 1425.68 476.295C1448.82 476.765 1472.04 476.46 1495.19 476.488L1508.18 476.498L1508.21 509.345L1425.48 509.313C1426.09 530.362 1426.35 551.419 1426.26 572.476L1388.82 572.467C1389.38 534.116 1388.92 495.687 1388.93 457.327C1388.93 445.272 1387.27 422.678 1389.51 411.958Z"/><path fill="#FEFEFE" transform="matrix(1.25769 0 0 1.25781 -0.000244141 0)" d="M1552.37 411.365C1553.29 411.284 1554.25 411.182 1555.17 411.249C1555.83 411.296 1557.72 411.467 1558.26 411.792C1563.35 414.845 1607.28 467.267 1614.92 475.911C1633.96 455.632 1651.56 433.468 1669.58 412.266L1712.94 412.289C1693.88 432.872 1676.21 455.128 1658.34 476.754C1649.77 486.24 1641.8 496.509 1633.62 506.351C1632.94 528.314 1633.34 550.589 1633.77 572.562L1596.85 572.482C1596.95 550.797 1596.01 528.527 1597.61 506.918C1574.28 483.87 1554.28 457.717 1531.42 434.206C1538.17 426.392 1545.34 418.922 1552.37 411.365Z"/><path fill="#FEFEFE" transform="matrix(1.25769 0 0 1.25781 -0.000244141 0)" d="M673.656 411.598L711.838 411.544C710.634 454.814 711.94 498.047 711.547 541.317L794.18 541.306C793.8 552.337 794.072 563.398 794.182 574.432C753.702 574.304 713.221 574.408 672.741 574.743C672.77 520.36 673.075 465.978 673.656 411.598Z"/><path fill="#FEFEFE" transform="matrix(1.25769 0 0 1.25781 -0.000244141 0)" d="M139.669 551.023L138.776 551.391C134.912 547.397 133.94 523.065 133.946 516.561C133.975 484.727 145.896 455.506 168.499 433.016C213.045 388.693 286.506 371.623 347.522 371.827L335.688 378.094C310.285 392.026 283.324 402.824 257.747 416.382C201.7 446.093 158.514 489.546 139.669 551.023Z"/><path fill="#D0CFCF" transform="matrix(1.25769 0 0 1.25781 -0.000244141 0)" d="M139.669 551.023C139.546 547.384 139.309 543.674 139.447 540.038C140.705 506.885 167.124 465.87 191.037 444.114C222.963 415.068 260.593 399.253 301.071 386.13C311.929 382.609 324.127 377.569 335.688 378.094C310.285 392.026 283.324 402.824 257.747 416.382C201.7 446.093 158.514 489.546 139.669 551.023Z"/><path fill="#FEFEFE" transform="matrix(1.25769 0 0 1.25781 -0.000244141 0)" d="M142.262 364.981L139.462 366.028L139.044 364.727C150.319 340.881 167.005 321.53 189.649 307.768C215.686 291.942 245.649 286.401 275.393 293.695C301.955 300.209 327.43 316.443 341.786 340.085C346.433 346.746 348.555 353.516 350.854 361.194C316.423 334.95 271.464 326.037 228.973 331.838C199.215 335.9 167.285 348.465 142.262 364.981Z"/><path fill="#D0CFCF" transform="matrix(1.25769 0 0 1.25781 -0.000244141 0)" d="M142.262 364.981C145.561 357.802 150.612 352.624 156.696 347.756C198.234 314.521 257.02 304.677 306.77 323.945C314.36 326.885 336.237 339.648 341.298 340.064C341.461 340.078 341.624 340.078 341.786 340.085C346.433 346.746 348.555 353.516 350.854 361.194C316.423 334.95 271.464 326.037 228.973 331.838C199.215 335.9 167.285 348.465 142.262 364.981Z"/><path fill="#FEFEFE" transform="matrix(1.25769 0 0 1.25781 -0.000244141 0)" d="M1329.53 411.62C1342.49 412.055 1355.57 411.743 1368.54 411.759C1368.16 465.387 1368.17 519.016 1368.57 572.644C1355.51 572.503 1342.44 572.65 1329.39 572.667L1329.53 411.62Z"/><path fill="#FEFEFE" transform="matrix(1.25769 0 0 1.25781 -0.000244141 0)" d="M243.434 262.709C290.385 245.062 342.449 246.977 387.977 268.027C410.301 278.176 429.153 292.32 442.703 312.945C417.426 297.168 394.81 288.167 364.897 285.137L356.152 300.283C352.277 309.853 350.306 318.531 349.467 328.814C344.125 321.423 338.507 314.219 332.001 307.806C302.371 278.606 263.391 270.906 223.271 271.12C229.914 268.018 236.454 264.983 243.434 262.709Z"/><path fill="#D0CFCF" transform="matrix(1.25769 0 0 1.25781 -0.000244141 0)" d="M243.434 262.709C243.624 262.734 243.815 262.763 244.006 262.785C252.74 263.774 262.074 261.168 270.906 261.14C306.677 261.025 333.135 273.17 356.152 300.283C352.277 309.853 350.306 318.531 349.467 328.814C344.125 321.423 338.507 314.219 332.001 307.806C302.371 278.606 263.391 270.906 223.271 271.12C229.914 268.018 236.454 264.983 243.434 262.709Z"/><path fill="#FEFEFE" transform="matrix(1.25769 0 0 1.25781 -0.000244141 0)" d="M130.531 458.695C129.856 460.354 129.84 460.794 128.299 461.807C128.184 461.592 128.061 461.38 127.955 461.161C125.03 455.139 130.578 428.897 132.903 421.956C141.996 394.822 161.386 374.143 186.856 361.559C229.847 340.319 279.117 343.722 323.446 358.671L310.352 359.779C247.785 370.102 179.953 388.218 141.005 442.373C137.225 447.623 133.728 453.071 130.531 458.695Z"/><path fill="#D0CFCF" transform="matrix(1.25769 0 0 1.25781 -0.000244141 0)" d="M130.531 458.695C130.927 450.168 134.389 441.592 138.238 434.041C155.684 399.816 189.92 378.619 225.553 367.21C242.298 361.849 295.114 351.917 310.352 359.779C247.785 370.102 179.953 388.218 141.005 442.373C137.225 447.623 133.728 453.071 130.531 458.695Z"/><path fill="#FEFEFE" transform="matrix(1.25769 0 0 1.25781 -0.000244141 0)" d="M373.949 300.067C399.893 306.62 420.873 315.96 439.888 335.136C436.158 337.736 432.871 341.019 429.526 344.09C417.325 333.661 400.436 322.203 384.378 319.374C380.728 328.073 376.721 336.794 376.627 346.414C376.569 352.433 377.567 361.002 381.915 365.524L382.684 364.686C382.279 361.47 381.56 358.403 380.774 355.262C380.237 348.8 380.338 339.643 384.285 334.118C385.92 331.829 387.46 331.44 390.062 331.017C392.717 331.818 394.088 333.041 395.39 335.502C399.07 342.452 396.672 350.874 394.574 357.904C398.861 355.845 403.219 354.151 407.666 352.483C396.417 363.313 384.367 373.727 375.409 386.607C372.62 382.552 370.27 378.212 368.401 373.659C357.853 348.12 363.844 324.563 373.949 300.067Z"/><path fill="#FEFEFE" transform="matrix(1.25769 0 0 1.25781 -0.000244141 0)" d="M341.948 240.405C375.687 237.232 419.25 237.458 446.863 260.392C458.463 270.026 464.406 282.116 469.087 296.06C470.69 299.054 471.612 302.89 472.727 306.126C468.47 306.541 464.232 307.312 460.008 307.976C449.099 294.635 437.34 283.136 423.926 272.331C394.945 254.544 375.025 247.28 341.948 240.405Z"/><path fill="#D0CFCF" transform="matrix(1.25769 0 0 1.25781 -0.000244141 0)" d="M423.926 272.331C435.145 275.371 462.195 296.034 469.087 296.06C470.69 299.054 471.612 302.89 472.727 306.126C468.47 306.541 464.232 307.312 460.008 307.976C449.099 294.635 437.34 283.136 423.926 272.331Z"/><path fill="#FEFEFE" transform="matrix(1.25769 0 0 1.25781 -0.000244141 0)" d="M443.629 242.67C448.974 243.787 454.567 247.198 459.303 249.901C486.961 265.683 510.084 288.94 528.098 314.975C513.566 309.772 500.706 305.626 485.18 304.671C475.791 279.645 462.703 261.305 443.629 242.67Z"/><path fill="#FEFEFE" transform="matrix(1.25769 0 0 1.25781 -0.000244141 0)" d="M628.89 431.573C629.814 432.043 630.048 432.471 630.65 433.29C631.888 443.407 630.265 452.794 626.534 462.193C625.005 466.042 620.507 476.68 616.528 478.388L612.736 469.548C618.434 455.767 618.829 443.559 628.89 431.573Z"/><path fill="#151415" fill-opacity="0.011764706" transform="matrix(1.25769 0 0 1.25781 -0.000244141 0)" d="M474.657 449.062C483.106 445.609 491.559 441.802 500.233 438.964C493.078 443.876 485.523 448.809 477.777 452.718L474.657 449.062Z"/><path fill="#151415" fill-opacity="0.011764706" transform="matrix(1.25769 0 0 1.25781 -0.000244141 0)" d="M565.656 375.565C559.966 371.15 553.085 364.052 549.924 357.541C555.944 362.587 562.465 368.796 569.794 371.817L566.787 372.624L565.656 375.565Z"/></svg>